<svg xmlns="http://www.w3.org/2000/svg"  viewBox="0 0 48 48" width="480px" height="480px" baseProfile="basic"><path fill="#fca66c" d="M25.82,2.128c-0.334-0.164-0.733-0.13-1.033,0.091c-0.301,0.221-0.453,0.59-0.396,0.959	c0.558,3.624,0.946,12.208-7.038,15.202c-1.043-1.726-2.935-6.5-3.246-6.322c-5.011,2.862-8.648,9.023-8.648,14.651	C5.458,37.479,13.083,45,24,45c5.379,0,9.643-2.528,13-6c3.132-3.239,5.542-7.25,5.542-12.167	C42.542,11.543,29.743,4.058,25.82,2.128z"/><path fill="#324561" d="M16.858,20.44c-0.308,0-0.611-0.142-0.808-0.408c-1.472-2.008-2.448-5.606-2.448-7.106	c0-0.553,0.447-1,1-1s1,0.447,1,1c0,1.094,0.85,4.271,2.062,5.923c0.326,0.445,0.23,1.071-0.215,1.398	C17.271,20.378,17.063,20.44,16.858,20.44z"/><path fill="#324561" d="M24,45c-0.553,0-1-0.447-1-1s0.447-1,1-1c10.354,0,16.542-8.22,16.542-16.167c0-0.553,0.447-1,1-1	s1,0.447,1,1C42.542,37.021,34.397,45,24,45z"/></svg>